# Blender 4.2.2 LTS
# www.blender.org
o Cube
v -2.500000 0.000000 2.000000
v -2.500000 3.000000 2.000000
v -2.500000 0.000000 -2.000000
v -2.500000 3.000000 -2.000000
v 2.500000 0.000000 2.000000
v 2.500000 3.000000 2.000000
v 2.500000 0.000000 -2.000000
v 2.500000 3.000000 -2.000000
v -2.411612 0.000000 1.929289
v -2.411612 3.000000 1.929289
v -2.411612 0.000000 -1.929289
v -2.411612 3.000000 -1.929289
v 2.411612 0.000000 1.929289
v 2.411612 3.000000 1.929289
v 2.411612 0.000000 -1.929289
v 2.411612 3.000000 -1.929289
v -0.754572 1.097313 -2.000000
v -0.754572 2.527313 -2.000000
v 0.705428 2.527313 -2.000000
v 0.705428 1.097313 -2.000000
v -0.754572 2.527313 2.000000
v 0.705428 1.097313 2.000000
v 0.705428 2.527313 2.000000
v -0.754572 1.097313 2.000000
v 0.705428 1.097313 -1.929289
v -0.754572 1.097313 -1.929289
v -0.754572 2.527313 -1.929289
v 0.705428 2.527313 -1.929289
v -0.754572 1.097313 1.929289
v -0.754572 2.527313 1.929289
v 0.705428 1.097313 1.929289
v 0.705428 2.527313 1.929289
vn -1.0000 -0.0000 -0.0000
vn -0.0000 -0.0000 -1.0000
vn 1.0000 -0.0000 -0.0000
vn -0.0000 -0.0000 1.0000
vn -0.0000 -1.0000 -0.0000
vn -0.0000 1.0000 -0.0000
vt 0.625000 0.000000
vt 0.375000 0.250000
vt 0.375000 0.000000
vt 0.375000 0.500000
vt 0.466443 0.410271
vt 0.625000 0.250000
vt 0.585609 0.410271
vt 0.585609 0.337271
vt 0.625000 0.500000
vt 0.375000 0.750000
vt 0.375000 1.000000
vt 0.466443 0.912729
vt 0.585609 0.839729
vt 0.625000 1.000000
vt 0.585609 0.912729
vt 0.466443 0.335889
vt 0.585609 0.411564
vt 0.585609 0.335889
vt 0.585609 0.838436
vt 0.585609 0.914111
vt 0.466443 0.838436
vt 0.625000 0.750000
vt 0.625000 0.029044
vt 0.375000 0.032458
vt 0.625000 0.032458
vt 0.375000 0.222150
vt 0.625000 0.218736
vt 0.375000 0.218736
vt 0.625000 0.527850
vt 0.375000 0.531264
vt 0.625000 0.531264
vt 0.625000 0.720956
vt 0.375000 0.717542
vt 0.375000 0.720956
vt 0.375000 0.527850
vt 0.125000 0.531264
vt 0.125000 0.720956
vt 0.125000 0.717542
vt 0.875000 0.531264
vt 0.875000 0.527850
vt 0.875000 0.720956
vt 0.625000 0.717542
vt 0.466443 0.337271
vt 0.466443 0.839729
vt 0.466443 0.411564
vt 0.466443 0.914111
vt 0.375000 0.029044
vt 0.625000 0.222150
vt 0.125000 0.527850
vt 0.875000 0.717542
s 0
f 2/1/1 3/2/1 1/3/1
f 7/4/2 3/2/2 20/5/2
f 4/6/2 19/7/2 18/8/2
f 8/9/3 5/10/3 7/4/3
f 1/11/4 5/10/4 24/12/4
f 23/13/4 2/14/4 21/15/4
f 11/2/3 10/1/3 9/3/3
f 11/2/4 15/4/4 26/16/4
f 28/17/4 12/6/4 27/18/4
f 13/10/1 16/9/1 15/4/1
f 10/14/2 32/19/2 30/20/2
f 13/10/2 9/11/2 31/21/2
f 3/2/5 9/3/5 1/3/5
f 2/1/6 12/6/6 4/6/6
f 7/4/5 11/2/5 3/2/5
f 4/6/6 16/9/6 8/9/6
f 5/10/5 15/4/5 7/4/5
f 8/9/6 14/22/6 6/22/6
f 1/11/5 13/10/5 5/10/5
f 6/22/6 10/14/6 2/14/6
f 21/23/3 29/24/3 30/25/3
f 17/26/3 27/27/3 26/28/3
f 19/29/1 25/30/1 28/31/1
f 23/32/1 31/33/1 22/34/1
f 20/35/6 26/36/6 25/30/6
f 24/37/6 31/33/6 29/38/6
f 19/29/5 27/39/5 18/40/5
f 21/41/5 32/42/5 23/32/5
f 2/1/1 4/6/1 3/2/1
f 20/5/2 19/7/2 8/9/2
f 3/2/2 4/6/2 18/8/2
f 3/2/2 18/8/2 17/43/2
f 20/5/2 8/9/2 7/4/2
f 3/2/2 17/43/2 20/5/2
f 4/6/2 8/9/2 19/7/2
f 8/9/3 6/22/3 5/10/3
f 21/15/4 2/14/4 1/11/4
f 5/10/4 6/22/4 23/13/4
f 5/10/4 23/13/4 22/44/4
f 24/12/4 21/15/4 1/11/4
f 5/10/4 22/44/4 24/12/4
f 23/13/4 6/22/4 2/14/4
f 11/2/3 12/6/3 10/1/3
f 26/16/4 27/18/4 12/6/4
f 15/4/4 16/9/4 28/17/4
f 15/4/4 28/17/4 25/45/4
f 26/16/4 12/6/4 11/2/4
f 15/4/4 25/45/4 26/16/4
f 28/17/4 16/9/4 12/6/4
f 13/10/1 14/22/1 16/9/1
f 10/14/2 14/22/2 32/19/2
f 32/19/2 14/22/2 13/10/2
f 9/11/2 10/14/2 30/20/2
f 9/11/2 30/20/2 29/46/2
f 31/21/2 32/19/2 13/10/2
f 9/11/2 29/46/2 31/21/2
f 3/2/5 11/2/5 9/3/5
f 2/1/6 10/1/6 12/6/6
f 7/4/5 15/4/5 11/2/5
f 4/6/6 12/6/6 16/9/6
f 5/10/5 13/10/5 15/4/5
f 8/9/6 16/9/6 14/22/6
f 1/11/5 9/11/5 13/10/5
f 6/22/6 14/22/6 10/14/6
f 21/23/3 24/47/3 29/24/3
f 17/26/3 18/48/3 27/27/3
f 19/29/1 20/35/1 25/30/1
f 23/32/1 32/42/1 31/33/1
f 20/35/6 17/49/6 26/36/6
f 24/37/6 22/34/6 31/33/6
f 19/29/5 28/31/5 27/39/5
f 21/41/5 30/50/5 32/42/5
