# Blender 4.2.2 LTS
# www.blender.org
mtllib 3.mtl
o 3
v -0.300000 0.000000 0.420000
v 0.300000 0.000000 0.420000
v -0.300000 -0.000000 -0.420000
v 0.300000 -0.000000 -0.420000
v -0.300000 0.060000 0.420000
v -0.300000 0.060000 -0.420000
v 0.300000 0.060000 0.420000
v 0.300000 0.060000 -0.420000
vn -0.0000 1.0000 -0.0000
vn -0.0000 -0.0000 -1.0000
vn -0.0000 -0.0000 1.0000
vn 1.0000 -0.0000 -0.0000
vn -1.0000 -0.0000 -0.0000
vt 0.000000 0.000000
vt 1.000000 0.000000
vt 1.000000 1.000000
vt 0.000000 1.000000
s 0
f 1/1/1 2/2/1 4/3/1 3/4/1
f 5/1/1 7/2/1 8/3/1 6/4/1
f 4/3/2 3/4/2 6/4/2 8/3/2
f 1/1/3 2/2/3 7/2/3 5/1/3
f 2/2/4 4/3/4 8/3/4 7/2/4
f 3/4/5 1/1/5 5/1/5 6/4/5
