# Blender 4.2.2 LTS
# www.blender.org
o charuco_board_000
v 0.275000 0.060000 0.366667
v 0.275000 0.060000 -0.366667
v -0.275000 0.060000 0.366667
v -0.275000 0.060000 -0.366667
v 0.275000 0.000000 0.366667
v -0.275000 0.000000 0.366667
v 0.275000 0.000000 -0.366667
v -0.275000 0.000000 -0.366667
vn -0.0000 1.0000 -0.0000
vn -0.0000 -0.0000 -1.0000
vn -0.0000 -0.0000 1.0000
vn -1.0000 -0.0000 -0.0000
vn 1.0000 -0.0000 -0.0000
vt 0.000000 0.000000
vt 1.000000 0.000000
vt 1.000000 1.000000
vt 0.000000 1.000000
s 0
f 1/1/1 2/2/1 4/3/1 3/4/1
f 5/1/1 7/2/1 8/3/1 6/4/1
f 2/2/2 7/2/2 8/3/2 4/3/2
f 3/4/3 6/4/3 5/1/3 1/1/3
f 4/3/4 8/3/4 6/4/4 3/4/4
f 1/1/5 5/1/5 7/2/5 2/2/5
